# xmcd
#
# Track frame offsets:
#	150
#	8747
#	18600
#	28492
#	40567
#	49127
#	57245
#	69375
#
# Disc length: 1077 seconds
#
# Revision: 1
# Processed by: cddbd v1.5.1PL0 Copyright (c) Steve Scherf et al.
# Submitted via: EasyCDDAExtractor 7.0.5.1
#
DISCID=64043308
DTITLE=Jerry Lee Lewis - Great Balls of Fire
DYEAR=1900
DGENRE=Country
TTITLE0=Great Balls of Fire
TTITLE1=Let's Talk About Us
TTITLE2=I'll Sail My Ship Alone
TTITLE3=Your Lovin' Ways
TTITLE4=Save the Last Dance For Me
TTITLE5=Waitin' For a Train
TTITLE6=Break Up
TTITLE7=I Can't Seem to Say Goodbye
EXTD=
EXTT0=
EXTT1=
EXTT2=
EXTT3=
EXTT4=
EXTT5=
EXTT6=
EXTT7=
PLAYORDER=
